<svg xmlns="http://www.w3.org/2000/svg" viewBox="0 0 384 384"><defs><style>.cls-1{fill:#656565;}</style></defs><g id="Слой_2" data-name="Слой 2"><g id="Capa_1" data-name="Capa 1"><path class="cls-1" d="M368,75.65a16,16,0,0,0,16-16V16s0-.05,0-.07a15,15,0,0,0-.31-3.06,14.4,14.4,0,0,0-.42-1.42,12.26,12.26,0,0,0-.49-1.56,15,15,0,0,0-.83-1.59c-.22-.39-.39-.8-.64-1.17a16.18,16.18,0,0,0-4.44-4.44c-.38-.25-.79-.42-1.17-.63a17,17,0,0,0-1.58-.84C373.58,1,373,.89,372.5.73s-.91-.31-1.39-.41A15.68,15.68,0,0,0,368,0H324.37a16,16,0,0,0,0,32h5L291.09,70.29C162.91-43.49,11,47.77,9.42,48.74A16,16,0,0,0,6.49,73.67L147.1,214.27l-48,48H62a16,16,0,0,0,0,32h5L53,308.35H16a16,16,0,0,0,0,32H43.63V368a16,16,0,0,0,32,0V331L89.7,316.91v5a16,16,0,0,0,32,0v-37l48-48L310.33,377.52a16,16,0,0,0,11.31,4.69,14.51,14.51,0,0,0,1.86-.11,16,16,0,0,0,11.76-7.5c1-1.57,92.27-153.5-21.56-281.68L352,54.62v5A16,16,0,0,0,368,75.65Zm-323.28-9C84.74,48.87,182.55,18.33,268.38,93l-98.65,98.65ZM317.5,339.42,192.35,214.27,291,115.61C366.68,202.29,335.66,299.53,317.5,339.42Z"/></g></g></svg>