<svg xmlns="http://www.w3.org/2000/svg" viewBox="0 0 16 13"><defs><style>.cls-1{fill:#fff;}</style></defs><g id="Слой_2" data-name="Слой 2"><g id="Слой_1-2" data-name="Слой 1"><path class="cls-1" d="M6.5,0A1.5,1.5,0,0,0,5,1.5V2H1.5A1.5,1.5,0,0,0,0,3.5v8A1.5,1.5,0,0,0,1.5,13h13A1.5,1.5,0,0,0,16,11.5v-8A1.5,1.5,0,0,0,14.5,2H11V1.5A1.5,1.5,0,0,0,9.5,0Zm0,1h3a.5.5,0,0,1,.5.5V2H6V1.5A.5.5,0,0,1,6.5,1ZM8.39,7.91,15,6.15V11.5a.5.5,0,0,1-.5.5H1.5a.5.5,0,0,1-.5-.5V6.15L7.61,7.91A1.47,1.47,0,0,0,8.39,7.91ZM1.5,3h13a.5.5,0,0,1,.5.5V5.12L8.13,7a.57.57,0,0,1-.26,0L1,5.12V3.5A.5.5,0,0,1,1.5,3Z"/></g></g></svg>