<svg xmlns="http://www.w3.org/2000/svg" viewBox="0 0 15.24 11.45"><defs><style>.cls-1{fill:#656565;}</style></defs><g id="Слой_2" data-name="Слой 2"><g id="Слой_1-2" data-name="Слой 1"><path class="cls-1" d="M11.12,3.92a.5.5,0,0,1-.5.5.51.51,0,0,1-.5-.5.5.5,0,0,1,.5-.5A.5.5,0,0,1,11.12,3.92Zm-1.5,1.5a.5.5,0,0,0,.5-.5.5.5,0,0,0-.5-.5.5.5,0,0,0-.5.5A.51.51,0,0,0,9.62,5.42Zm2.5-.5a.5.5,0,0,1-.5.5.51.51,0,0,1-.5-.5.5.5,0,0,1,.5-.5A.5.5,0,0,1,12.12,4.92Zm-1.5,1.5a.5.5,0,0,0,.5-.5.5.5,0,0,0-.5-.5.5.5,0,0,0-.5.5A.51.51,0,0,0,10.62,6.42Zm-6.5-3h1v1h1v1h-1v1h-1v-1h-1v-1h1Z"/><path class="cls-1" d="M2.67,1.15A.5.5,0,0,1,3,.54H3L5,0a.49.49,0,0,1,.61.35v0a16.94,16.94,0,0,1,2-.12A16.31,16.31,0,0,1,9.74.42.5.5,0,0,1,10.32,0h0L12.3.54a.5.5,0,0,1,.35.61.37.37,0,0,1-.05.11,1.86,1.86,0,0,1,.37.3,6,6,0,0,1,1.1,1.77,14.3,14.3,0,0,1,.8,2.47,13.45,13.45,0,0,1,.37,2.61,5.31,5.31,0,0,1-.33,2.21,1.43,1.43,0,0,1-1.44.83A2.59,2.59,0,0,1,12,10.67c-.24-.23-.49-.52-.74-.81l-.36-.42A4,4,0,0,0,7.62,7.91,4,4,0,0,0,4.4,9.44L4,9.86a8.39,8.39,0,0,1-.74.81,2.6,2.6,0,0,1-1.51.78,1.45,1.45,0,0,1-1.45-.83A5.31,5.31,0,0,1,0,8.41,13.56,13.56,0,0,1,.37,5.8a14.3,14.3,0,0,1,.8-2.47,6,6,0,0,1,1.1-1.77,2,2,0,0,1,.43-.33l0-.08Zm2,.41A3.65,3.65,0,0,0,3,2.27a4.88,4.88,0,0,0-.89,1.46A13.16,13.16,0,0,0,1.34,6,13,13,0,0,0,1,8.43a4.34,4.34,0,0,0,.25,1.78.41.41,0,0,0,.42.24A1.57,1.57,0,0,0,2.6,10a8.54,8.54,0,0,0,.62-.68c.13-.15.27-.32.44-.5a5,5,0,0,1,4-1.85,5,5,0,0,1,4,1.85l.44.5a6.94,6.94,0,0,0,.61.68,1.57,1.57,0,0,0,.93.5.43.43,0,0,0,.43-.24,4.36,4.36,0,0,0,.24-1.78A12.18,12.18,0,0,0,13.9,6a13.16,13.16,0,0,0-.75-2.3,5.11,5.11,0,0,0-.88-1.46,3.75,3.75,0,0,0-1.74-.71,14.48,14.48,0,0,0-2.91-.27A14.55,14.55,0,0,0,4.71,1.56Z"/></g></g></svg>