<svg xmlns="http://www.w3.org/2000/svg" viewBox="0 0 512.01 443.73"><defs><style>.cls-1{fill:#656565;}</style></defs><g id="Слой_2" data-name="Слой 2"><g id="Capa_1" data-name="Capa 1"><path class="cls-1" d="M510,105.47,424.69,3.07A8.53,8.53,0,0,0,418.14,0H93.87a8.53,8.53,0,0,0-6.55,3.06L2,105.47a8.54,8.54,0,0,0,6.56,14H503.47a8.54,8.54,0,0,0,6.56-14ZM26.76,102.4,97.87,17.07H414.14l71.1,85.33Z"/><path class="cls-1" d="M263.9,5.26A8.53,8.53,0,0,0,256,0H93.88a8.53,8.53,0,0,0-7.37,12.83l59.73,102.4a8.55,8.55,0,0,0,6.27,4.17,10.32,10.32,0,0,0,1.1.07,8.56,8.56,0,0,0,6-2.5l102.4-102.4A8.55,8.55,0,0,0,263.9,5.26ZM155.4,97.08l-46.67-80H235.41Z"/><path class="cls-1" d="M511.11,107.14a8.52,8.52,0,0,0-7.65-4.75H8.53A8.53,8.53,0,0,0,1.75,116.1L249.22,440.37a8.51,8.51,0,0,0,13.55,0L510.24,116.1A8.55,8.55,0,0,0,511.11,107.14ZM256,421.14,25.78,119.47H486.23Z"/><path class="cls-1" d="M264.15,432.62,161.75,108.36a8.55,8.55,0,0,0-8.14-6H8.54A8.53,8.53,0,0,0,1.76,116.1L249.23,440.37a8.49,8.49,0,0,0,6.78,3.36,8.28,8.28,0,0,0,3.93-1A8.54,8.54,0,0,0,264.15,432.62ZM25.78,119.47H147.35L233.16,391.2Z"/><path class="cls-1" d="M425.54,4.28A8.53,8.53,0,0,0,418.14,0H256a8.53,8.53,0,0,0-6,14.57L352.37,117a8.53,8.53,0,0,0,6,2.5,10.32,10.32,0,0,0,1.1-.07,8.52,8.52,0,0,0,6.27-4.17l59.73-102.4A8.54,8.54,0,0,0,425.54,4.28Zm-68.93,92.8-80-80H403.28Z"/><path class="cls-1" d="M511.13,107.16a8.54,8.54,0,0,0-7.65-4.75H358.41a8.53,8.53,0,0,0-8.14,6L247.87,432.64a8.55,8.55,0,0,0,4.21,10.14,8.46,8.46,0,0,0,3.92,1,8.58,8.58,0,0,0,6.79-3.34L510.26,116.12A8.55,8.55,0,0,0,511.13,107.16Zm-232.28,284,85.81-271.73H486.23Z"/></g></g></svg>