<svg xmlns="http://www.w3.org/2000/svg" viewBox="0 0 16 11"><defs><style>.cls-1{fill:#fff;}</style></defs><g id="Слой_2" data-name="Слой 2"><g id="Слой_1-2" data-name="Слой 1"><path class="cls-1" d="M16,5.5S13,0,8,0,0,5.5,0,5.5,3,11,8,11,16,5.5,16,5.5ZM1.17,5.5a13.57,13.57,0,0,1,1.66-2A7.46,7.46,0,0,1,8,1a7.46,7.46,0,0,1,5.17,2.46,13.57,13.57,0,0,1,1.66,2l-.2.29a12.79,12.79,0,0,1-1.46,1.75A7.46,7.46,0,0,1,8,10,7.46,7.46,0,0,1,2.83,7.54a13.57,13.57,0,0,1-1.66-2Z"/><path class="cls-1" d="M8,3a2.5,2.5,0,1,0,2.5,2.5A2.5,2.5,0,0,0,8,3ZM4.5,5.5A3.5,3.5,0,1,1,8,9,3.5,3.5,0,0,1,4.5,5.5Z"/></g></g></svg>