<svg xmlns="http://www.w3.org/2000/svg" viewBox="0 0 13.49 13.62"><defs><style>.cls-1{fill:#656565;}</style></defs><g id="Слой_2" data-name="Слой 2"><g id="Слой_1-2" data-name="Слой 1"><path class="cls-1" d="M5.69,2.28A9.76,9.76,0,0,0,4.34.64,3,3,0,0,0,3.63.12a1,1,0,0,0-.89,0,1,1,0,0,0-.43.9,3.92,3.92,0,0,0,.18,1,11.59,11.59,0,0,0,1,2.4L.25,7.72A1,1,0,0,0,0,8.64a2.87,2.87,0,0,0,.36.9A10.15,10.15,0,0,0,2,11.61a9.9,9.9,0,0,0,2.07,1.63,3.45,3.45,0,0,0,.9.36,1,1,0,0,0,.92-.22l5.62-5.62a1.75,1.75,0,0,1,.05.94c0,.29-.07.67-.08,1.18V10h0a1,1,0,0,0,2,0h0V9.83a4.58,4.58,0,0,0-1.86-3.5,3.42,3.42,0,0,0-.21-.43A9.9,9.9,0,0,0,9.79,3.83,9.9,9.9,0,0,0,7.72,2.2a3.45,3.45,0,0,0-.9-.36,1,1,0,0,0-.92.22l-.21.22Zm-2-.91A8.84,8.84,0,0,1,5,3l-.7.7a10.47,10.47,0,0,1-.81-1.93,3.14,3.14,0,0,1-.13-.68A2.24,2.24,0,0,1,3.65,1.37Zm.4,4a11,11,0,0,0,1.6,2,.51.51,0,0,0,.71,0,.5.5,0,0,0,0-.71,9.92,9.92,0,0,1-1.57-2L5.86,3.52c0,.12.12.24.18.36A9.9,9.9,0,0,0,7.67,6,9.9,9.9,0,0,0,9.74,7.58a3,3,0,0,0,.36.18L5.24,12.62H5.17a2,2,0,0,1-.6-.25A8.76,8.76,0,0,1,2.72,10.9,8.76,8.76,0,0,1,1.26,9.05,2.24,2.24,0,0,1,1,8.45s0,0,0-.07ZM6.92,3.4a2.1,2.1,0,0,1-.24-.56,2.48,2.48,0,0,1,.56.24A9,9,0,0,1,9.08,4.54,10.34,10.34,0,0,1,10.2,5.85a3.16,3.16,0,0,0-1.06.09,8.4,8.4,0,0,1-.76-.7A9,9,0,0,1,6.92,3.4Z"/></g></g></svg>