<svg xmlns="http://www.w3.org/2000/svg" viewBox="0 0 492.01 268.45"><defs><style>.cls-1{fill:#656565;}</style></defs><g id="Слой_2" data-name="Слой 2"><g id="Layer_1" data-name="Layer 1"><path class="cls-1" d="M472.1,8a133.81,133.81,0,0,0-106.29,6.47L304.59,44.66,192.08,3.32a6,6,0,0,0-5.19.51L156,22.64a6,6,0,0,0-.14,10.17l74.85,48.24-87.25,43L93,89.1a69.57,69.57,0,0,0-65.3-7.47L3.79,91.07a6,6,0,0,0-1.57,10.24L95.39,177a70.55,70.55,0,0,0,44.31,16c.67,0,1.35,0,2,0a38.62,38.62,0,0,0,13.33-2.46l81.46-31.37L198.22,260.33a6,6,0,0,0,5.62,8.12h49.89a6,6,0,0,0,5.19-3L346.16,114.8,472.87,64.63A30.28,30.28,0,0,0,472.1,8ZM170.39,27.91l20.26-12.33L289.72,52,243.23,74.86Zm79.88,228.54H212.52l47-124.19,81.28-32.09Zm218.18-203L355.85,98.05l3.93-6.79a6,6,0,0,0-7.4-8.58l-99.78,39.4a6,6,0,0,0-3.41,3.45l-7,18.51-91.51,35.24a26.73,26.73,0,0,1-9.33,1.64,58.33,58.33,0,0,1-38.41-13.28L17.74,98.47,32.06,92.8A57.59,57.59,0,0,1,86.12,99l53.39,36.9a6,6,0,0,0,6.06.45L371.19,25.24A121.84,121.84,0,0,1,468,19.31a18.28,18.28,0,0,1,.46,34.16Z"/></g></g></svg>