<svg xmlns="http://www.w3.org/2000/svg" viewBox="0 0 16 15"><defs><style>.cls-1{fill:#fff;}</style></defs><g id="Слой_2" data-name="Слой 2"><g id="Слой_1-2" data-name="Слой 1"><path class="cls-1" d="M2.86,14.35a.53.53,0,0,0,.75.59L8,12.69l4.39,2.25a.53.53,0,0,0,.75-.59l-.83-4.73,3.52-3.35a.55.55,0,0,0-.28-.95l-4.9-.7L8.46.29a.51.51,0,0,0-.92,0L5.35,4.62l-4.9.7a.55.55,0,0,0-.28.95L3.69,9.62l-.83,4.73Zm4.91-2.77-3.69,1.9.7-4A.56.56,0,0,0,4.61,9L1.71,6.25l4.05-.58a.51.51,0,0,0,.39-.29L8,1.72,9.85,5.38a.51.51,0,0,0,.39.29l4,.58L11.38,9a.58.58,0,0,0-.16.5l.7,4-3.69-1.9a.53.53,0,0,0-.46,0Z"/></g></g></svg>