<svg xmlns="http://www.w3.org/2000/svg" viewBox="0 0 510.93 512"><defs><style>.cls-1{fill:#656565;}</style></defs><g id="Слой_2" data-name="Слой 2"><g id="Capa_1" data-name="Capa 1"><path class="cls-1" d="M337.55,206.41,111.29,432.66l0,0L47,497a.15.15,0,0,1-.18,0L15,465.19a.11.11,0,0,1,0-.09.12.12,0,0,1,0-.1l58.74-58.74a7.5,7.5,0,1,0-10.6-10.61L4.43,454.4a15.14,15.14,0,0,0,0,21.4L36.2,507.57a15.14,15.14,0,0,0,21.4,0l64.28-64.28,0,0L348.16,217a7.5,7.5,0,1,0-10.61-10.6Z"/><path class="cls-1" d="M327.91,376.32q-2.1-.81-4.14-1.56C313.6,371,308.15,368.64,305,360.6l-4.81-12.15a10.47,10.47,0,0,0-9.77-6.63h0a10.42,10.42,0,0,0-9.76,6.7c-.55,1.4-1.06,2.79-1.57,4.15-3.77,10.16-6.12,15.61-14.16,18.8l-12.14,4.82a10.51,10.51,0,0,0,.07,19.57q2.1.81,4.14,1.56c10.17,3.78,15.62,6.12,18.81,14.16l4.82,12.15a10.45,10.45,0,0,0,9.76,6.63h0a10.45,10.45,0,0,0,9.76-6.7L304.65,412a19.92,19.92,0,0,1,11.19-11.26L328,395.89a10.51,10.51,0,0,0-.07-19.57Zm-17.6,10.44a35,35,0,0,0-19.64,19.78l-.4,1-.6-1.51c-4.57-11.53-12.4-16.52-20.75-20.06l1.47-.57c11.52-4.58,16.51-12.41,20.05-20.75l.58,1.46c4.57,11.52,12.4,16.51,20.75,20.05Z"/><path class="cls-1" d="M80.7,161.17l14.67,5.7A26.89,26.89,0,0,1,110.58,182l6,15.24a11.21,11.21,0,0,0,10.48,7.12h0a11.22,11.22,0,0,0,10.47-7.19l5.7-14.67a26.88,26.88,0,0,1,15.11-15.21l15.24-6a11.27,11.27,0,0,0-.08-21l-14.66-5.7a26.9,26.9,0,0,1-15.22-15.11l-6-15.24a11.22,11.22,0,0,0-10.49-7.12h0a11.21,11.21,0,0,0-10.47,7.2L111,118.91a26.91,26.91,0,0,1-15.1,15.22l-15.24,6a11.28,11.28,0,0,0,.07,21Zm20.7-13.1A41.9,41.9,0,0,0,125,124.34l2.27-5.82,2.55,6.42a41.93,41.93,0,0,0,23.72,23.56l5.83,2.27-6.42,2.54A42,42,0,0,0,129.34,177l-2.27,5.83-2.54-6.43a42,42,0,0,0-23.73-23.55L95,150.62Z"/><path class="cls-1" d="M252.78,54q2.1.81,4.14,1.56c10.17,3.78,15.62,6.12,18.81,14.16l4.82,12.14a10.44,10.44,0,0,0,9.76,6.64h0a10.45,10.45,0,0,0,9.76-6.7c.55-1.4,1.06-2.79,1.57-4.15,3.77-10.16,6.12-15.61,14.16-18.8L328,54.07a10.51,10.51,0,0,0-.07-19.57q-2.1-.81-4.14-1.56c-10.16-3.78-15.62-6.12-18.81-14.16L300.14,6.64A10.44,10.44,0,0,0,290.37,0h0a10.44,10.44,0,0,0-9.76,6.7c-.55,1.4-1.06,2.79-1.57,4.15-3.77,10.16-6.12,15.62-14.16,18.8l-12.14,4.82A10.51,10.51,0,0,0,252.78,54Zm17.6-10.44C281.91,39,286.9,31.19,290.44,22.85l.58,1.46c4.57,11.52,12.4,16.51,20.75,20.05l-1.47.58c-11.52,4.57-16.51,12.41-20.05,20.75l-.58-1.46c-4.57-11.52-12.4-16.51-20.75-20.05Z"/><path class="cls-1" d="M503.74,208l-14.67-5.7a26.93,26.93,0,0,1-15.22-15.11l-6-15.23a11.21,11.21,0,0,0-10.48-7.12h0a11.22,11.22,0,0,0-10.48,7.19l-5.69,14.67A26.94,26.94,0,0,1,426,201.94L410.77,208a11.27,11.27,0,0,0,.08,21l14.66,5.7a26.9,26.9,0,0,1,15.22,15.11l6,15.23a11.21,11.21,0,0,0,10.48,7.12h0A11.21,11.21,0,0,0,467.77,265l5.69-14.67a26.94,26.94,0,0,1,15.11-15.21l15.24-6a11.28,11.28,0,0,0-.07-21ZM483,221.13a42,42,0,0,0-23.56,23.72l-2.26,5.83-2.55-6.42a42,42,0,0,0-23.73-23.56l-5.83-2.27,6.43-2.55a42,42,0,0,0,23.56-23.72l2.26-5.83,2.55,6.42a41.92,41.92,0,0,0,23.73,23.56l5.83,2.27Z"/><path class="cls-1" d="M420.69,144.48a15.16,15.16,0,0,0,0-21.41L388.92,91.3a15.12,15.12,0,0,0-21.39,0L87.93,370.9a7.5,7.5,0,0,0,10.6,10.61l252-251.95,31.95,31.95L362.3,181.66a7.5,7.5,0,0,0,10.61,10.6l47.79-47.78Zm-42.56-42.57a.17.17,0,0,1,.19,0l31.77,31.77a.14.14,0,0,1,0,.19l-17,17-32-32Z"/></g></g></svg>